<svg width="129" height="139" viewBox="0 0 129 139" fill="none" xmlns="http://www.w3.org/2000/svg">
<path d="M82.4167 111.2C77.4 111.2 73.1597 109.52 69.6958 106.161C66.232 102.802 64.5 98.69 64.5 93.825C64.5 88.96 66.232 84.8479 69.6958 81.4888C73.1597 78.1296 77.4 76.45 82.4167 76.45C87.4333 76.45 91.6736 78.1296 95.1375 81.4888C98.6014 84.8479 100.333 88.96 100.333 93.825C100.333 98.69 98.6014 102.802 95.1375 106.161C91.6736 109.52 87.4333 111.2 82.4167 111.2ZM14.3333 139C10.3917 139 7.01617 137.64 4.20683 134.92C1.40228 132.196 0 128.922 0 125.1V27.8C0 23.9775 1.40228 20.7064 4.20683 17.9866C7.01617 15.2622 10.3917 13.9 14.3333 13.9H21.5V6.95C21.5 4.98083 22.1856 3.32905 23.5568 1.99465C24.9328 0.664883 26.6361 0 28.6667 0C30.6972 0 32.4005 0.664883 33.7765 1.99465C35.1477 3.32905 35.8333 4.98083 35.8333 6.95V13.9H93.1667V6.95C93.1667 4.98083 93.8547 3.32905 95.2307 1.99465C96.6019 0.664883 98.3028 0 100.333 0C102.364 0 104.065 0.664883 105.436 1.99465C106.812 3.32905 107.5 4.98083 107.5 6.95V13.9H114.667C118.608 13.9 121.984 15.2622 124.793 17.9866C127.598 20.7064 129 23.9775 129 27.8V125.1C129 128.922 127.598 132.196 124.793 134.92C121.984 137.64 118.608 139 114.667 139H14.3333ZM14.3333 125.1H114.667V65.3887H14.3333V125.1Z" fill="white"/>
</svg>
